# xmcd
#
# Track frame offsets: 
#        182
#        14550
#        28137
#        42742
#        57007
#        69722
#        84062
#        96935
#        110397
#        124622
#        138912
#        152985
#        167405
#        180710
#        194517
#        207497
#        221800
#        234690
#        249210
#        263217
#        277580
#        291212
#
# Disc length: 4051 seconds
#
# Revision: 2
# Processed by: cddbd v1.5.2PL0 Copyright (c) Steve Scherf et al.
# Submitted via: ExactAudioCopy v1.3
#
DISCID=410fd116
DTITLE=Various Artist - Pure Vintage Blues Vol.3 - Future Blues
DYEAR=1996
DGENRE=Blues
TTITLE0=Garfield Akers - Dough Roller Blues
TTITLE1=Willie Brown - Future Blues
TTITLE2=Joe Callicot - Travelling Mama Blues
TTITLE3=Willie Brown - M and O Blues
TTITLE4=Kid Bailey - Mississippi Bottom Blues
TTITLE5=Son House - My Black Mama
TTITLE6=Garfield Akers - Cottonfield Blues
TTITLE7=Kid Bailey - Rowdy Blues
TTITLE8=Memphis Jug Band - Sun Brimmers Blues
TTITLE9=James Wiggins - Evil Woman Blues
TTITLE10=Raymond Barrow - Walking Blues
TTITLE11=James Wiggins - Corrinne Corina Blues
TTITLE12=Romeo Nelson - Gettin' Dirty Just Shakin' That Thing
TTITLE13=Blind Leroy Garnett - Chain 'em Down
TTITLE14=Memphis Jug Band - Kansas City Blues
TTITLE15=Blind Leroy Garnett - Louisiana Glide
TTITLE16=Furry Lewis - Good Looking Girl Blues
TTITLE17=Memphis Jug Band - Peaches in the Springtime
TTITLE18=Furry Lewis - Dry Land Blues
TTITLE19=Memphis Jug Band - Snitchin' Gambler Blues
TTITLE20=Romeo Nelson - Head Rag Hop
TTITLE21=Furry Lewis - Falling Down Blues
EXTD=
EXTT0=
EXTT1=
EXTT2=
EXTT3=
EXTT4=
EXTT5=
EXTT6=
EXTT7=
EXTT8=
EXTT9=
EXTT10=
EXTT11=
EXTT12=
EXTT13=
EXTT14=
EXTT15=
EXTT16=
EXTT17=
EXTT18=
EXTT19=
EXTT20=
EXTT21=
PLAYORDER=
